# xmcd CD database file
#
# Track frame offsets:
#	151
#	37877
#	74416
#	103532
#	160190
#	188895
#
# Disc length: 2940 seconds
#
# Revision: 0
# Processed by: cddbd v1.5.2PL0 Copyright (c) Steve Scherf et al.
# Submitted via: CDex 1.70beta2
#
DISCID=470b7a06
DTITLE=Nicolas Simion Band - Live at Mumyhua Festival (Hochnenkirchen, Austria)
DYEAR=2002
DGENRE=Jazz
TTITLE0=Figthing Song
TTITLE1=Seven Dreams
TTITLE2=Halsamera
TTITLE3=Transylvanian Dance
TTITLE4=Children's Dance
TTITLE5=One for Kisser
EXTD=YEAR: 2002
EXTT0=
EXTT1=
EXTT2=
EXTT3=
EXTT4=
EXTT5=
PLAYORDER=
